<svg xmlns="http://www.w3.org/2000/svg" viewBox="0.06 0.56 32.5 37.13">
    <g fill="none" fill-rule="evenodd">
        <path d="M-4-1h40v40H-4z"/>
        <path fill="#00a818"
              d="M16.438.563C7.386.563.063 7.886.063 16.938c0 7.968 5.712 14.589 13.25 16.062v4.688c9.8-1.478 18.477-9.257 19.124-19.47.39-6.146-2.674-12.421-7.843-15.468a13.62 13.62 0 0 0-1.875-.938l-.313-.125c-.287-.106-.577-.225-.875-.312a16.246 16.246 0 0 0-5.093-.813v.001z"/>
        <path fill="#fff"
              d="M19.813 6.625a1.787 1.787 0 0 0-1.563.625c-.3.4-.488.787-.688 1.188-.6 1.4-.4 2.9.5 4 1.4-.3 2.588-1.194 3.188-2.594.2-.4.313-.913.313-1.313.062-1.062-.817-1.81-1.75-1.906zm-7.282.094c-.913.087-1.781.812-1.781 1.812 0 .4.113.913.313 1.313.6 1.4 1.88 2.293 3.28 2.594.8-1.1 1.007-2.6.407-4-.2-.4-.387-.794-.688-1.094a1.757 1.757 0 0 0-1.53-.625h-.001zM7.625 11.53c-1.577.081-2.281 2.063-.969 3.094.4.3.788.519 1.188.719 1.4.6 3.019.394 4.218-.406-.3-1.3-1.318-2.494-2.718-3.094-.5-.2-.906-.313-1.406-.313-.113-.012-.208-.005-.313 0zm15.406 6.063a4.574 4.574 0 0 0-2.593.75c.3 1.3 1.318 2.493 2.718 3.093.5.2.907.313 1.407.313 1.8.1 2.68-2.125 1.28-3.125-.4-.3-.787-.488-1.187-.688a4.32 4.32 0 0 0-1.625-.343zm-13.656.093c-.55.011-1.1.12-1.625.344-.5.2-.888.419-1.188.719-1.3 1.1-.425 3.194 1.375 3.094.5 0 1.007-.113 1.407-.313 1.4-.6 2.394-1.793 2.594-3.093a4.475 4.475 0 0 0-2.563-.75v-.001zm5.063 3.063c-1.4.3-2.588 1.194-3.188 2.594-.2.4-.313.881-.313 1.281-.1 1.7 2.22 2.613 3.22 1.313.3-.4.487-.788.687-1.188.6-1.3.394-2.8-.406-4zm3.718.094c-.8 1.1-1.006 2.6-.406 4 .2.4.387.793.688 1.093 1.1 1.2 3.412.313 3.312-1.187 0-.4-.113-.913-.313-1.313-.6-1.4-1.88-2.293-3.28-2.593h-.001z"/>
    </g>
</svg>
