<?xml version="1.0" encoding="UTF-8" standalone="no"?>
<!-- Created with Inkscape (http://www.inkscape.org/) -->
<svg
   xmlns:dc="http://purl.org/dc/elements/1.1/"
   xmlns:cc="http://creativecommons.org/ns#"
   xmlns:rdf="http://www.w3.org/1999/02/22-rdf-syntax-ns#"
   xmlns:svg="http://www.w3.org/2000/svg"
   xmlns="http://www.w3.org/2000/svg"
   xmlns:sodipodi="http://sodipodi.sourceforge.net/DTD/sodipodi-0.dtd"
   xmlns:inkscape="http://www.inkscape.org/namespaces/inkscape"
   width="302.08463"
   height="154.61842"
   id="svg3653"
   sodipodi:version="0.32"
   inkscape:version="0.46"
   sodipodi:docname="cucumber_yin_yang.svg"
   inkscape:output_extension="org.inkscape.output.svg.inkscape"
   version="1.0">
  <defs
     id="defs3655">
    <inkscape:perspective
       sodipodi:type="inkscape:persp3d"
       inkscape:vp_x="0 : 526.18109 : 1"
       inkscape:vp_y="0 : 1000 : 0"
       inkscape:vp_z="744.09448 : 526.18109 : 1"
       inkscape:persp3d-origin="372.04724 : 350.78739 : 1"
       id="perspective3661" />
  </defs>
  <sodipodi:namedview
     id="base"
     pagecolor="#ffffff"
     bordercolor="#666666"
     borderopacity="1.0"
     gridtolerance="10000"
     guidetolerance="10"
     objecttolerance="10"
     inkscape:pageopacity="0.0"
     inkscape:pageshadow="2"
     inkscape:zoom="0.35"
     inkscape:cx="375"
     inkscape:cy="520"
     inkscape:document-units="px"
     inkscape:current-layer="layer1"
     showgrid="false"
     inkscape:window-width="1920"
     inkscape:window-height="1090"
     inkscape:window-x="0"
     inkscape:window-y="22" />
  <metadata
     id="metadata3658">
    <rdf:RDF>
      <cc:Work
         rdf:about="">
        <dc:format>image/svg+xml</dc:format>
        <dc:type
           rdf:resource="http://purl.org/dc/dcmitype/StillImage" />
      </cc:Work>
    </rdf:RDF>
  </metadata>
  <g
     inkscape:label="Layer 1"
     inkscape:groupmode="layer"
     id="layer1"
     transform="translate(-117.52908,-157.91011)">
    <path
       sodipodi:type="arc"
       style="opacity:1;fill:#445500;fill-rule:evenodd;stroke:#000000;stroke-width:1.04700005;stroke-miterlimit:4;stroke-dasharray:none;stroke-opacity:1"
       id="path3162"
       sodipodi:cx="236.07143"
       sodipodi:cy="417.71933"
       sodipodi:rx="76.785713"
       sodipodi:ry="76.785713"
       d="M 312.85714,417.71933 A 76.785713,76.785713 0 1 1 159.28571,417.71933 A 76.785713,76.785713 0 1 1 312.85714,417.71933 z"
       transform="translate(-41.233129,-182.50001)" />
    <path
       sodipodi:type="arc"
       style="opacity:1;fill:#aad400;fill-rule:evenodd;stroke:#000000;stroke-width:1.04700005;stroke-miterlimit:4;stroke-dasharray:none;stroke-opacity:1"
       id="path3165"
       sodipodi:cx="230.35715"
       sodipodi:cy="412.71933"
       sodipodi:rx="73.214287"
       sodipodi:ry="73.214287"
       d="M 303.57143,412.71933 A 73.214287,73.214287 0 1 1 157.14286,412.71933 A 73.214287,73.214287 0 1 1 303.57143,412.71933 z"
       transform="translate(-35.947429,-177.78572)" />
    <path
       style="opacity:1;fill:#ff0000;fill-rule:evenodd;stroke:#000000;stroke-width:1.04700005;stroke-miterlimit:4;stroke-opacity:1"
       d="M 267.85177,233.97114 C 267.85177,274.38543 235.03417,308.37698 194.63747,307.18543 C 173.81617,306.57128 156.02907,293.4781 156.51207,268.30851 C 156.77057,254.83655 170.59897,232.56146 193.80377,234.06218 C 214.53107,235.40267 230.51697,213.98124 230.77217,196.34296 C 231.01277,179.97018 212.31107,159.99924 194.63747,161.51447 C 232.77187,161.00694 267.85177,193.55685 267.85177,233.97114 z"
       id="path3255"
       sodipodi:nodetypes="csssscc" />
    <flowRoot
       xml:space="preserve"
       id="flowRoot3370"
       style="font-size:48px;font-style:normal;font-variant:normal;font-weight:bold;font-stretch:normal;fill:#000000;fill-opacity:1;stroke:none;stroke-width:1px;stroke-linecap:butt;stroke-linejoin:miter;stroke-opacity:1;font-family:Apple LiGothic;-inkscape-font-specification:Apple LiGothic Bold"
       transform="translate(-69.082029,-137.31197)"><flowRegion
         id="flowRegion3372"><rect
           id="rect3374"
           width="314.91504"
           height="64.144684"
           x="321.73358"
           y="398.79349"
           style="font-size:48px;font-style:normal;font-variant:normal;font-weight:bold;font-stretch:normal;font-family:Apple LiGothic;-inkscape-font-specification:Apple LiGothic Bold" /></flowRegion><flowPara
         id="flowPara3376"
         style="font-size:48px;font-style:normal;font-variant:normal;font-weight:bold;font-stretch:normal;font-family:Apple LiGothic;-inkscape-font-specification:Apple LiGothic Bold">Cucumber</flowPara></flowRoot>    <path
       style="fill:#ffffff;fill-opacity:1;fill-rule:nonzero;stroke:none;stroke-width:1.04700005;stroke-miterlimit:4;stroke-opacity:1"
       d="M 196.28537,212.16662 C 196.28537,215.18024 194.81627,221.71357 192.86627,221.71357 C 190.91627,221.71357 189.22017,215.18024 189.22017,212.16662 C 189.22017,209.15301 190.80277,206.70717 192.75277,206.70717 C 194.70277,206.70717 196.28537,209.15301 196.28537,212.16662 z"
       id="path3637"
       sodipodi:nodetypes="csssc" />
    <path
       style="fill:#ffffff;fill-opacity:1;fill-rule:nonzero;stroke:none;stroke-width:1.04700005;stroke-miterlimit:4;stroke-opacity:1"
       d="M 178.57377,216.55025 C 180.72687,218.65878 184.36687,224.2795 183.00257,225.67271 C 181.63827,227.06592 175.78367,223.70663 173.63047,221.59812 C 171.47737,219.48958 170.83717,216.64761 172.20147,215.2544 C 173.56577,213.86119 176.42057,214.44174 178.57377,216.55025 z"
       id="path3639"
       sodipodi:nodetypes="csssc" />
    <path
       style="fill:#ffffff;fill-opacity:1;fill-rule:nonzero;stroke:none;stroke-width:1.04700005;stroke-miterlimit:4;stroke-opacity:1"
       d="M 208.19477,216.83349 C 206.04167,218.94202 202.40157,224.56273 203.76587,225.95594 C 205.13027,227.34915 210.98487,223.98987 213.13797,221.88135 C 215.29117,219.77282 215.93137,216.93085 214.56707,215.53764 C 213.20267,214.14443 210.34797,214.72498 208.19477,216.83349 z"
       id="path3641"
       sodipodi:nodetypes="csssc" />
    <path
       style="fill:#ffffff;fill-opacity:1;fill-rule:nonzero;stroke:none;stroke-width:1.04700005;stroke-miterlimit:4;stroke-opacity:1"
       d="M 216.37737,237.43667 C 213.36377,237.43667 206.83037,235.96761 206.83037,234.01762 C 206.83037,232.06764 213.36377,230.3715 216.37737,230.3715 C 219.39097,230.3715 221.83677,231.9541 221.83677,233.90408 C 221.83677,235.85407 219.39097,237.43667 216.37737,237.43667 z"
       id="path3643"
       sodipodi:nodetypes="csssc" />
    <path
       style="fill:#ffffff;fill-opacity:1;fill-rule:nonzero;stroke:none;stroke-width:1.04700005;stroke-miterlimit:4;stroke-opacity:1"
       d="M 169.62867,237.59163 C 172.64227,237.59163 179.17567,236.12257 179.17567,234.17258 C 179.17567,232.2226 172.64227,230.52646 169.62867,230.52646 C 166.61507,230.52646 164.16927,232.10906 164.16927,234.05904 C 164.16927,236.00903 166.61507,237.59163 169.62867,237.59163 z"
       id="path3645"
       sodipodi:nodetypes="csssc" />
    <path
       style="fill:#ffffff;fill-opacity:1;fill-rule:nonzero;stroke:none;stroke-width:1.04700005;stroke-miterlimit:4;stroke-opacity:1"
       d="M 196.22207,256.9787 C 196.22207,253.96508 194.75297,247.43175 192.80297,247.43175 C 190.85297,247.43175 189.15687,253.96508 189.15687,256.9787 C 189.15687,259.99231 190.73947,262.43815 192.68947,262.43815 C 194.63947,262.43815 196.22207,259.99231 196.22207,256.9787 z"
       id="path3647"
       sodipodi:nodetypes="csssc" />
    <path
       style="fill:#ffffff;fill-opacity:1;fill-rule:nonzero;stroke:none;stroke-width:1.04700005;stroke-miterlimit:4;stroke-opacity:1"
       d="M 178.38327,252.72222 C 180.53637,250.61369 184.17647,244.99297 182.81207,243.59976 C 181.44777,242.20655 175.59317,245.56584 173.44007,247.67435 C 171.28687,249.78289 170.64667,252.62486 172.01097,254.01807 C 173.37537,255.41128 176.23007,254.83073 178.38327,252.72222 z"
       id="path3649"
       sodipodi:nodetypes="csssc" />
    <path
       style="fill:#ffffff;fill-opacity:1;fill-rule:nonzero;stroke:none;stroke-width:1.04700005;stroke-miterlimit:4;stroke-opacity:1"
       d="M 208.25857,252.18468 C 206.10547,250.07615 202.46547,244.45544 203.82977,243.06223 C 205.19407,241.66902 211.04867,245.0283 213.20187,247.13682 C 215.35497,249.24535 215.99517,252.08732 214.63087,253.48053 C 213.26647,254.87374 210.41177,254.29319 208.25857,252.18468 z"
       id="path3651"
       sodipodi:nodetypes="csssc" />
  </g>
</svg>
